<svg xmlns="http://www.w3.org/2000/svg" viewBox="0 0 64 64" fill="none">
  <path
    fill="#5B8A3C"
    d="M31.8 10.2c2.9-4.7 8.2-6.7 13.2-5.2-3.7 1.4-6.2 4-7.2 7.6 3.5-2.4 8-3 12-1.5-3.1 1.3-5.4 3.5-6.7 6.7-1.8-2.3-4.5-3.8-7.8-4.3.5 2 .4 4.2-.4 6.1-1.7-2.7-2.3-6-1.4-9.4-.3 0-.9 0-1.7.1Z"
  />
  <path
    fill="#E05252"
    d="M32 17.5c-12.8 0-23.3 10.1-23.3 22.6 0 13.1 10.9 23.9 23.3 23.9s23.3-10.8 23.3-23.9c0-12.5-10.5-22.6-23.3-22.6Z"
  />
  <path
    fill="#F7A7A1"
    d="M22.2 25.4c-4.8 2.6-8.1 8.4-8.1 14.5 0 1.2.1 2.3.3 3.4 1.7-6.6 5.4-11.8 10.8-15.1 3.6-2.2 7.8-3.4 12.2-3.5-4.8-1.7-10.3-1.4-15.2.7Z"
    opacity=".7"
  />
  <ellipse cx="41.5" cy="41.8" fill="#C63F3F" rx="8.8" ry="7.6" opacity=".35" />
</svg>
